<svg width="40" height="40" viewBox="0 0 40 40" fill="none" xmlns="http://www.w3.org/2000/svg">
<path d="M40 20C40 8.95431 31.0457 0 20 0C8.95431 0 0 8.95431 0 20C0 31.0457 8.95431 40 20 40C31.0457 40 40 31.0457 40 20Z" fill="#0088CC"/>
<path d="M10.1251 19.6354C15.4938 17.2963 19.0738 15.7543 20.8651 15.0092C25.9794 12.882 27.0422 12.5125 27.7348 12.5001C27.8872 12.4976 28.2278 12.5353 28.4485 12.7144C28.6348 12.8655 28.686 13.0698 28.7106 13.2131C28.7351 13.3564 28.7656 13.6829 28.7414 13.9381C28.4642 16.8501 27.265 23.9169 26.6549 27.1784C26.3967 28.5585 25.8884 29.0212 25.3963 29.0665C24.3268 29.1649 23.5147 28.3597 22.4789 27.6807C20.858 26.6182 19.9424 25.9568 18.369 24.92C16.5508 23.7218 17.7295 23.0633 18.7657 21.987C19.0369 21.7053 23.749 17.4193 23.8402 17.0305C23.8516 16.9819 23.8622 16.8006 23.7545 16.7049C23.6468 16.6092 23.4879 16.6419 23.3732 16.668C23.2106 16.7049 20.6212 18.4163 15.6051 21.8024C14.8701 22.3071 14.2044 22.553 13.6079 22.5401C12.9504 22.5259 11.6855 22.1683 10.7452 21.8626C9.5919 21.4877 8.67527 21.2895 8.75509 20.6528C8.79666 20.3212 9.25335 19.9821 10.1251 19.6354Z" fill="white"/>
</svg>
