<svg width="24" height="24" viewBox="0 0 24 24" fill="none" xmlns="http://www.w3.org/2000/svg">
<path d="M9.54995 15.8804L18.352 7.07942C18.4493 6.98209 18.564 6.93009 18.696 6.92342C18.828 6.91675 18.949 6.96875 19.059 7.07942C19.169 7.19009 19.2243 7.30909 19.225 7.43642C19.2256 7.56375 19.1706 7.68242 19.06 7.79242L10.116 16.7424C9.95395 16.9044 9.76528 16.9854 9.54995 16.9854C9.33462 16.9854 9.14595 16.9044 8.98395 16.7424L4.93395 12.6924C4.83662 12.5951 4.78595 12.4794 4.78195 12.3454C4.77795 12.2114 4.83062 12.0894 4.93995 11.9794C5.04928 11.8694 5.16828 11.8144 5.29695 11.8144C5.42562 11.8144 5.54462 11.8694 5.65395 11.9794L9.54995 15.8804Z" fill="black"/>
</svg>
