<svg width="145" height="112" viewBox="0 0 145 112" fill="none" xmlns="http://www.w3.org/2000/svg">
<path d="M107.537 0C129.378 0 145 7.76087 145 25.8696C145 39.7174 135.748 50.5217 122.704 54.1739C119.064 61.9348 110.722 73.6522 102.531 80.8044C80.387 100.435 52.4791 112 31.6998 112C16.3808 112 0 107.587 0 83.6956C0 65.4348 8.94874 41.2391 35.795 21.913C58.3943 5.47826 84.3305 0 107.537 0ZM140.298 26.1739C140.298 9.28261 127.254 3.04348 112.997 3.04348C93.2793 3.04348 69.0115 13.087 44.7437 31.1957C20.4759 49.1522 5.30858 73.8043 5.30858 89.4783C5.30858 110.783 26.9979 110.326 33.8232 109.87C24.1161 108.043 20.7793 100.587 20.7793 92.6739C20.7793 74.1087 38.6768 51.8913 56.5743 38.9565C74.3201 25.8696 94.9477 19.3261 110.722 19.3261C121.339 19.3261 128.771 23.1304 128.771 33.7826C128.771 38.6522 127.254 45.3478 123.614 52.1957C134.383 48.087 140.298 37.7391 140.298 26.1739ZM125.889 32.1087C125.889 24.6522 119.974 21.4565 112.694 21.4565C98.7395 21.4565 79.6287 30.587 61.5795 44.4348C45.6538 56.7609 24.2678 76.087 24.2678 95.1087C24.2678 102.565 28.0596 108.957 39.8902 108.957C58.3943 105.304 79.6287 91.6087 97.5261 74.8696C111.783 61.4783 125.889 43.3696 125.889 32.1087Z" fill="#A38C6A"/>
</svg>
