<svg width="228" height="127" viewBox="0 0 228 127" fill="none" xmlns="http://www.w3.org/2000/svg">
<path d="M227.931 21.6993C228.603 23.3815 224.233 24.0543 220.536 24.0543C211.964 24.0543 193.308 20.6901 178.181 17.6623C176.164 20.0172 165.24 34.3152 155.659 45.5854C149.609 52.8185 139.861 64.0887 134.986 68.7987C143.054 68.7987 150.617 68.9669 155.491 69.4715C158.013 69.8079 158.012 71.3219 157.172 72.1629C156.5 72.8358 155.491 72.6675 152.298 72.3311C148.768 71.9947 140.365 71.1536 132.97 71.3218C97.6742 108.328 60.53 127 26.2431 127C13.1334 127 -0.648647 121.617 0.0236459 104.123C0.527865 94.3669 4.39355 83.9377 11.1165 74.5179C8.42731 72.6675 4.7297 67.6212 4.7297 57.0238C4.7297 42.7258 12.6291 27.9232 27.9238 17.8305C42.3781 8.24239 63.8915 0 97.5061 0C127.759 0 162.214 9.41986 175.66 12.7841C179.022 10.2609 185.072 6.39205 190.955 4.54172C192.804 4.03708 194.989 3.53245 194.989 4.70993C194.989 5.55099 193.308 5.71921 191.963 6.22384C187.761 7.73775 183.56 11.4384 180.87 13.9616C192.299 16.653 216.334 22.0358 223.225 22.0358C226.586 22.0358 227.763 21.1947 227.931 21.6993ZM171.458 16.653C160.87 14.9709 122.381 9.08345 97.17 9.08345C64.2276 9.08345 45.4034 14.8026 31.2853 22.8768C13.8057 33.1377 7.41887 47.0993 7.2508 57.1921C7.2508 64.5934 8.76346 69.8079 12.293 73.004C18.1756 65.098 25.2346 58.5377 33.9744 52.4821C51.7902 40.3709 73.6397 35.1563 86.9175 35.1563C94.3127 35.1563 102.548 37.343 102.548 45.7536C102.548 53.155 96.6658 63.9205 86.9175 73.1722C90.279 71.8265 96.6658 70.8172 100.027 70.4808C105.91 69.8079 110.28 69.4715 115.49 69.1351C124.23 60.2199 134.986 49.4543 142.214 42.2212C151.794 33.1377 161.374 24.5589 171.458 16.653ZM112.969 71.6583C107.591 71.9947 101.372 72.1629 96.1615 73.004C91.6236 73.6768 85.741 75.5271 82.0434 78.0503C80.0265 79.396 77.3373 82.2556 74.4801 84.6106C72.6313 86.1245 70.6144 87.6384 69.4379 87.6384C68.9337 87.6384 68.2614 87.302 68.2614 86.6291C68.2614 84.7788 70.9506 82.2556 72.7994 80.7417C74.9843 78.8914 79.0181 76.3682 82.8838 74.6861C93.3043 64.0887 100.363 52.3139 100.363 45.0808C100.363 39.698 95.8254 37.8477 90.1109 37.8477C75.9928 38.0159 55.4878 48.445 39.5209 59.0424C21.0328 71.4901 4.56162 90.1616 3.38511 104.123C1.70438 120.103 13.6376 124.309 26.075 124.309C53.9752 124.309 84.9006 98.7404 112.969 71.6583Z" fill="#A38C6A"/>
</svg>
